# xmcd
# Track frame offsets:
# 150
# 12736
# 22487
# 42258
# 56272
# 65860
# 76973
# 93397
# 106835
# 118111
# 132885
# 156430
# 180762
# 196480
# 211916
# 229536
# 249753
# 260146
# 274852
# 292887
#
# Disc length: 4266 seconds
# Revision: 0
# Processed by: cddbd v1.4PL0 Copyright (c) Steve Scherf et al.
# Submitted via: VisiTrax 2.9.5.181 - For more info visit www.synapsa.com
#
DISCID=1d10a814
DTITLE=Glen Campbell - Glen Campbell - Unplugged
DYEAR=1900
DGENRE=Country
TTITLE0=By The Time I Get To Phoenix
TTITLE1=Gentle On My Mind
TTITLE2=Witchita Linesman/Galveston/Country Boy
TTITLE3=Rhinestone Cowboy
TTITLE4=Dreams Of An Everyday Housewife
TTITLE5=Heartache Number Three
TTITLE6=Please Come To Boston
TTITLE7=Trials And Tribulations
TTITLE8=It's Only Make Believe
TTITLE9=Crying
TTITLE10=Milk Cow Blues
TTITLE11=Bluegrass medley
TTITLE12=Rollin' In My Sweet Baby's Arms
TTITLE13=I'm So Lonesome I Could cry
TTITLE14=Southern Nights
TTITLE15=Amazing Grace
TTITLE16=Try A Little Kindness
TTITLE17=In Your Loving Arms
TTITLE18=It's Your World (Boys And Girls)
TTITLE19=Mull Of Kintyre
EXTD=
EXTT0=
EXTT1=
EXTT2=
EXTT3=
EXTT4=
EXTT5=
EXTT6=
EXTT7=
EXTT8=
EXTT9=
EXTT10=
EXTT11=
EXTT12=
EXTT13=
EXTT14=
EXTT15=
EXTT16=
EXTT17=
EXTT18=
EXTT19=
PLAYORDER=
